<svg width="64" height="64" viewBox="0 0 64 64" fill="none" xmlns="http://www.w3.org/2000/svg">
  <rect width="64" height="64" rx="14" fill="#020407"/>
  <g fill="#E7ECF6" opacity="0.92">
    <circle cx="32" cy="8" r="1.25"/>
    <circle cx="39" cy="9.1" r="1.25"/>
    <circle cx="45.5" cy="12.2" r="1.25"/>
    <circle cx="51.8" cy="18.5" r="1.25"/>
    <circle cx="54.9" cy="25" r="1.25"/>
    <circle cx="56" cy="32" r="1.25"/>
    <circle cx="54.9" cy="39" r="1.25"/>
    <circle cx="51.8" cy="45.5" r="1.25"/>
    <circle cx="45.5" cy="51.8" r="1.25"/>
    <circle cx="39" cy="54.9" r="1.25"/>
    <circle cx="32" cy="56" r="1.25"/>
    <circle cx="25" cy="54.9" r="1.25"/>
    <circle cx="18.5" cy="51.8" r="1.25"/>
    <circle cx="12.2" cy="45.5" r="1.25"/>
    <circle cx="9.1" cy="39" r="1.25"/>
    <circle cx="8" cy="32" r="1.25"/>
    <circle cx="9.1" cy="25" r="1.25"/>
    <circle cx="12.2" cy="18.5" r="1.25"/>
    <circle cx="18.5" cy="12.2" r="1.25"/>
    <circle cx="25" cy="9.1" r="1.25"/>
  </g>
  <ellipse cx="32" cy="32" rx="24" ry="10" stroke="#E7ECF6" stroke-width="2" stroke-dasharray="2 4" opacity="0.62"/>
  <ellipse cx="32" cy="32" rx="10" ry="24" stroke="#E7ECF6" stroke-width="2" stroke-dasharray="2 4" opacity="0.62"/>
  <path d="M20 22H44M20 32H44M20 42H44M32 18V46" stroke="#E7ECF6" stroke-width="2" stroke-dasharray="2 4" opacity="0.78"/>
  <text x="32" y="38" text-anchor="middle" font-family="Consolas, monospace" font-size="18" font-weight="900" fill="#E7ECF6">V</text>
</svg>
